<svg width="33" height="32" viewBox="0 0 33 32" fill="none" xmlns="http://www.w3.org/2000/svg">
<path d="M15.1664 7.53206C18.9557 3.74272 24.2224 2.86539 26.9291 5.57206M26.9291 5.57206C29.6357 8.27872 28.7571 13.5441 24.9691 17.3334M26.9291 5.57206C26.6024 7.20672 24.8704 10.7654 20.5557 11.9414M20.2184 26.3854C17.437 29.1667 12.0237 28.2654 8.12905 24.3707C4.23572 20.4761 3.33305 15.0641 6.11572 12.2814C7.79305 12.6161 11.4544 14.3961 12.6637 18.8281C14.3904 25.1614 18.205 25.7121 20.2197 26.3841M20.217 26.3867C22.9984 23.6041 22.0971 18.1921 18.2024 14.2974C14.3077 10.4041 8.89572 9.50139 6.11305 12.2841" stroke="#F6EBD1" stroke-width="1.5" stroke-linecap="round" stroke-linejoin="round"/>
</svg>
