<svg width="139" height="75" viewBox="0 0 139 75" fill="none" xmlns="http://www.w3.org/2000/svg">
<path d="M9.5 0V31.5H106.5M1 0V37.5H106.5" stroke="#5D4037"/>
<path d="M9.5 75V43.5H106.5M1 75V37.5H106.5" stroke="#5D4037"/>
<path d="M106.834 53.4999L106.834 23.4999C106.835 23.1961 106.918 22.8984 107.076 22.6387C107.234 22.3791 107.459 22.1673 107.728 22.0262C107.997 21.8851 108.299 21.8201 108.602 21.838C108.906 21.856 109.198 21.9563 109.449 22.1282L131.115 37.1282C132.014 37.7499 132.014 39.2465 131.115 39.8699L109.449 54.8699C109.199 55.0435 108.906 55.1453 108.602 55.1642C108.299 55.1832 107.996 55.1186 107.726 54.9773C107.456 54.8361 107.231 54.6237 107.073 54.3632C106.916 54.1028 106.833 53.8042 106.834 53.4999Z" fill="#5D4037"/>
</svg>
