<svg width="24" height="24" viewBox="0 0 24 24" fill="none" xmlns="http://www.w3.org/2000/svg">
<path d="M10.313 15.83C8.678 15.542 7.363 14.104 7.203 12.26C7.013 10.076 8.518 8.149 10.563 7.956C10.8837 7.92667 11.196 7.939 11.5 7.993M10.22 4L10.323 5.187M6.042 7.576L5.184 6.811M4.611 12.505L3.5 12.61M6.868 17.087L6.155 18M16.5 22C17.282 21.9998 18.0467 21.7705 18.6997 21.3403C19.3527 20.9101 19.8653 20.2979 20.1741 19.5795C20.4829 18.8611 20.5743 18.0679 20.4371 17.298C20.2999 16.5282 19.94 15.8155 19.402 15.248C18.896 14.713 18.642 14.446 18.572 14.268C18.5 14.089 18.5 13.853 18.5 13.382V4C18.5 3.46957 18.2893 2.96086 17.9142 2.58579C17.5391 2.21071 17.0304 2 16.5 2C15.9696 2 15.4609 2.21071 15.0858 2.58579C14.7107 2.96086 14.5 3.46957 14.5 4V13.382C14.5 13.854 14.5 14.089 14.429 14.268C14.358 14.446 14.104 14.713 13.598 15.248C13.06 15.8155 12.7001 16.5282 12.5629 17.298C12.4257 18.0679 12.5171 18.8611 12.8259 19.5795C13.1347 20.2979 13.6473 20.9101 14.3003 21.3403C14.9533 21.7705 15.718 21.9998 16.5 22Z" stroke="#F6EBD1" stroke-linecap="round" stroke-linejoin="round"/>
<path d="M16.5 7V16" stroke="#F6EBD1" stroke-linecap="round"/>
<circle cx="16.5996" cy="18.5" r="2.5" fill="#F6EBD1"/>
</svg>
