<svg width="19" height="19" viewBox="0 0 19 19" fill="none" xmlns="http://www.w3.org/2000/svg">
<path d="M11.9675 13.4675C12.26 13.76 12.7325 13.76 13.025 13.4675L16.4675 10.025C16.537 9.95561 16.5922 9.8732 16.6298 9.78247C16.6675 9.69174 16.6868 9.59448 16.6868 9.49625C16.6868 9.39802 16.6675 9.30076 16.6298 9.21003C16.5922 9.1193 16.537 9.03689 16.4675 8.9675L13.025 5.525C12.9556 5.45547 12.8732 5.40031 12.7825 5.36268C12.6917 5.32504 12.5945 5.30567 12.4963 5.30567C12.398 5.30567 12.3008 5.32504 12.21 5.36268C12.1193 5.40031 12.0369 5.45547 11.9675 5.525C11.6825 5.8175 11.675 6.2975 11.9675 6.59L14.1275 8.75H5.75C5.3375 8.75 5 9.0875 5 9.5C5 9.9125 5.3375 10.25 5.75 10.25H14.1275L11.9675 12.41C11.898 12.4794 11.8428 12.5618 11.8052 12.6525C11.7675 12.7433 11.7482 12.8405 11.7482 12.9387C11.7482 13.037 11.7675 13.1342 11.8052 13.225C11.8428 13.3157 11.898 13.3981 11.9675 13.4675ZM2.75 14C3.1625 14 3.5 13.6625 3.5 13.25V5.75C3.5 5.3375 3.1625 5 2.75 5C2.3375 5 2 5.3375 2 5.75V13.25C2 13.6625 2.3375 14 2.75 14Z" fill="#3E2723"/>
</svg>
