<svg width="16" height="17" viewBox="0 0 16 17" fill="none" xmlns="http://www.w3.org/2000/svg">
<path d="M-4.76837e-07 9.3C-4.76837e-07 9.72435 0.153246 10.1313 0.426026 10.4314C0.698807 10.7314 1.06878 10.9 1.45455 10.9H6.05091L5.35273 14.556C5.33818 14.636 5.33091 14.724 5.33091 14.812C5.33091 15.14 5.45455 15.444 5.65091 15.66L6.42182 16.5L11.2073 11.236C11.4764 10.94 11.6364 10.54 11.6364 10.1V2.1C11.6364 1.67565 11.4831 1.26869 11.2103 0.968629C10.9376 0.668571 10.5676 0.5 10.1818 0.5H3.63636C3.03273 0.5 2.51636 0.899999 2.29818 1.476L0.101817 7.116C0.0363627 7.3 -4.76837e-07 7.492 -4.76837e-07 7.7V9.3ZM16 0.5H13.0909V10.1H16V0.5Z" fill="#F6EBD1"/>
</svg>
