<svg width="16" height="17" viewBox="0 0 16 17" fill="none" xmlns="http://www.w3.org/2000/svg">
<path d="M16 7.7C16 7.27565 15.8468 6.86869 15.574 6.56863C15.3012 6.26857 14.9312 6.1 14.5455 6.1H9.94909L10.6473 2.444C10.6618 2.364 10.6691 2.276 10.6691 2.188C10.6691 1.86 10.5455 1.556 10.3491 1.34L9.57818 0.5L4.79273 5.764C4.52364 6.06 4.36364 6.46 4.36364 6.9V14.9C4.36364 15.3243 4.51688 15.7313 4.78966 16.0314C5.06244 16.3314 5.43241 16.5 5.81818 16.5H12.3636C12.9673 16.5 13.4836 16.1 13.7018 15.524L15.8982 9.884C15.9636 9.7 16 9.508 16 9.3V7.7ZM0 16.5H2.90909V6.9H0V16.5Z" fill="#F6EBD1"/>
</svg>
