<svg width="19" height="18" viewBox="0 0 19 18" fill="none" xmlns="http://www.w3.org/2000/svg">
<path d="M12.5 2.25V5.25M6.5 2.25V5.25M3.5 8.25H15.5M6.5 10.5V13.5M9.5 10.5V13.5M12.5 10.5V13.5M3.5 5.25C3.5 4.85218 3.65804 4.47064 3.93934 4.18934C4.22064 3.90804 4.60218 3.75 5 3.75H14C14.3978 3.75 14.7794 3.90804 15.0607 4.18934C15.342 4.47064 15.5 4.85218 15.5 5.25V14.25C15.5 14.6478 15.342 15.0294 15.0607 15.3107C14.7794 15.592 14.3978 15.75 14 15.75H5C4.60218 15.75 4.22064 15.592 3.93934 15.3107C3.65804 15.0294 3.5 14.6478 3.5 14.25V5.25Z" stroke="#3E2723" stroke-linecap="round" stroke-linejoin="round"/>
</svg>
