<svg width="170" height="152" viewBox="0 0 170 152" fill="none" xmlns="http://www.w3.org/2000/svg">
<g id="hugeicons:ai-user" clip-path="url(#clip0_933_2098)">
<g id="Frame 427">
<path id="Vector 9" d="M170 34.8571V144C170 148.418 166.418 152 162 152H8C3.58172 152 0 148.418 0 144V8C0 3.58172 3.58172 0 8 0H129.767" stroke="#F6EBD1" stroke-width="4"/>
<g id="Vector">
<path d="M26 142C38.1095 74.1899 109.421 75.5371 120.337 142ZM92.2651 69.7743C92.2651 80.2579 83.7675 88.7663 73.2745 88.7663C70.781 88.7703 68.3113 88.282 66.0065 87.3293C63.7017 86.3767 61.6071 84.9784 59.8426 83.2144C58.078 81.4504 56.6782 79.3554 55.723 77.0492C54.7679 74.743 54.2763 72.2709 54.2763 69.7743C54.2763 59.2907 62.7739 50.7822 73.2745 50.7822C75.7673 50.7792 78.2362 51.2683 80.5401 52.2214C82.844 53.1745 84.9377 54.5729 86.7015 56.3368C88.4652 58.1007 89.8644 60.1954 90.819 62.5011C91.7737 64.8068 92.2651 67.2783 92.2651 69.7743Z" fill="#F6EBD1"/>
<path d="M26 142C38.1095 74.1899 109.421 75.5371 120.337 142M92.2651 69.7743C92.2651 80.2579 83.7675 88.7663 73.2745 88.7663C70.781 88.7703 68.3113 88.282 66.0065 87.3293C63.7017 86.3767 61.6071 84.9784 59.8426 83.2144C58.078 81.4504 56.6782 79.3554 55.723 77.0492C54.7679 74.743 54.2763 72.2709 54.2763 69.7743C54.2763 59.2907 62.7739 50.7822 73.2745 50.7822C75.7673 50.7792 78.2362 51.2683 80.5401 52.2214C82.844 53.1745 84.9377 54.5729 86.7015 56.3368C88.4652 58.1007 89.8644 60.1954 90.819 62.5011C91.7737 64.8068 92.2651 67.2783 92.2651 69.7743Z" stroke="#F6EBD1" stroke-width="2" stroke-linecap="round" stroke-linejoin="round"/>
</g>
<path id="Rectangle 28" d="M130.178 12C136.451 27.4576 143.093 33.9813 160.355 42.1777C141.718 46.1205 135.595 53.2798 130.178 72.3555C123.072 53.8437 116.069 47.763 100 42.1777C115.32 35.3482 122.225 29.1296 130.178 12Z" fill="#F6EBD1"/>
</g>
</g>
<defs>
<clipPath id="clip0_933_2098">
<rect width="170" height="152" fill="white"/>
</clipPath>
</defs>
</svg>
