<svg width="18" height="19" viewBox="0 0 18 19" fill="none" xmlns="http://www.w3.org/2000/svg">
<path d="M9 12.5C10.6569 12.5 12 11.1569 12 9.5C12 7.84315 10.6569 6.5 9 6.5C7.34315 6.5 6 7.84315 6 9.5C6 11.1569 7.34315 12.5 9 12.5Z" fill="#F6EBD1"/>
<path d="M9 3.5C12.315 3.5 15 6.185 15 9.5C15 12.815 12.315 15.5 9 15.5C5.685 15.5 3 12.815 3 9.5C3 6.185 5.685 3.5 9 3.5Z" stroke="#F6EBD1" stroke-linecap="round" stroke-linejoin="round"/>
<path d="M9 3.5V2M15 9.5H16.5M9 15.5V17M3 9.5H1.5" stroke="#F6EBD1" stroke-linecap="round" stroke-linejoin="round"/>
</svg>
