<svg width="24" height="24" viewBox="0 0 24 24" fill="none" xmlns="http://www.w3.org/2000/svg">
<path d="M14.5978 12.5L12.9618 15.442C12.8665 15.6373 12.8915 15.803 13.0368 15.939C13.1821 16.075 13.3455 16.0897 13.5268 15.983L18.7138 12.677C18.9658 12.5157 19.0918 12.29 19.0918 12C19.0918 11.71 18.9658 11.4843 18.7138 11.323L13.5268 8.01699C13.3448 7.90966 13.1815 7.92432 13.0368 8.06099C12.8921 8.19766 12.8668 8.36332 12.9608 8.55799L14.5978 11.5H2.9998C2.85713 11.5 2.73813 11.5477 2.6428 11.643C2.54746 11.7383 2.4998 11.8573 2.4998 12C2.4998 12.1427 2.54746 12.2617 2.6428 12.357C2.73813 12.4523 2.85713 12.5 2.9998 12.5H14.5978Z" fill="#A67C52"/>
</svg>
