<svg width="18" height="18" viewBox="0 0 18 18" fill="none" xmlns="http://www.w3.org/2000/svg">
<path d="M13.3129 8.3985C13.3127 7.39226 12.9129 6.4273 12.2014 5.71578C11.4899 5.00426 10.5249 4.60445 9.51866 4.60425M15.9139 8.133C15.9139 7.33575 15.7569 6.5463 15.4517 5.80975C15.1466 5.07319 14.6994 4.40395 14.1356 3.84024C13.5719 3.27654 12.9026 2.8294 12.166 2.52437C11.4294 2.21935 10.6399 2.0624 9.84266 2.0625M9.39791 15.1627C9.17291 15.06 8.94866 14.9573 8.72441 14.835C7.6244 14.2135 6.61391 13.4455 5.72066 12.552C4.56318 11.4619 3.61215 10.1717 2.91341 8.7435C2.53962 7.97634 2.28711 7.15583 2.16491 6.31125C2.00005 5.45786 2.09461 4.57464 2.43641 3.7755C2.64728 3.43199 2.90191 3.11735 3.19391 2.8395C3.3124 2.70693 3.45646 2.59966 3.61743 2.52414C3.7784 2.44861 3.95297 2.40639 4.13066 2.4C4.50041 2.4555 4.83566 2.649 5.06666 2.94225C5.57216 3.504 6.11441 4.0095 6.64766 4.54275C6.85766 4.72275 6.98891 4.97775 7.01291 5.25375C7.00391 5.48625 6.91466 5.7075 6.76016 5.88075C6.58241 6.10575 6.36716 6.31125 6.16166 6.52575C6.0374 6.64544 5.94233 6.79211 5.88381 6.95441C5.82529 7.11671 5.80488 7.2903 5.82416 7.46175C5.95316 7.863 6.17441 8.229 6.46991 8.529C6.82444 9.0127 7.19592 9.48374 7.58366 9.94125C8.30683 10.7755 9.16348 11.4839 10.1187 12.0375C10.2509 12.1374 10.4073 12.2004 10.5719 12.2202C10.7364 12.2399 10.9033 12.2157 11.0554 12.15C11.3727 11.9723 11.6554 11.7375 11.8879 11.4578C12.0894 11.2127 12.3777 11.055 12.6927 11.0175C12.9732 11.0325 13.2372 11.1525 13.4322 11.355C13.6842 11.5695 13.8994 11.8223 14.1334 12.0563C14.3674 12.2903 14.5549 12.459 14.7514 12.6735C14.9869 12.8815 15.2082 13.103 15.4152 13.338C15.5757 13.5458 15.6529 13.8067 15.6304 14.0677C15.5468 14.3803 15.3668 14.6585 15.1159 14.8627C14.7626 15.2301 14.3334 15.5159 13.8583 15.7002C13.3831 15.8845 12.8735 15.963 12.3649 15.93C11.3352 15.8729 10.3262 15.6121 9.39791 15.1627Z" stroke="#A67C52" stroke-miterlimit="10" stroke-linecap="round"/>
</svg>
