<svg width="32" height="31" viewBox="0 0 32 31" fill="none" xmlns="http://www.w3.org/2000/svg">
<g clip-path="url(#clip0_293_896)">
<path d="M26.5245 20.0106L30.534 16.0012C30.6669 15.8683 30.7416 15.688 30.7416 15.5C30.7416 15.312 30.6669 15.1317 30.534 14.9988L26.5245 10.9894C26.4255 10.89 26.2991 10.8222 26.1614 10.7947C26.0238 10.7671 25.8811 10.7811 25.7514 10.8348C25.6217 10.8885 25.5109 10.9794 25.4329 11.0962C25.355 11.2129 25.3135 11.3502 25.3137 11.4906L25.3147 14.7913L1.96673 14.7903V16.2097L25.3147 16.2087L25.3137 19.5094C25.3135 19.6498 25.355 19.7871 25.4329 19.9038C25.5109 20.0206 25.6217 20.1115 25.7514 20.1652C25.8811 20.2189 26.0238 20.2329 26.1614 20.2053C26.2991 20.1778 26.4255 20.11 26.5245 20.0106Z" fill="#3E2723"/>
</g>
<defs>
<clipPath id="clip0_293_896">
<rect width="21.2633" height="21.2633" fill="white" transform="translate(31.0352 15.5) rotate(135)"/>
</clipPath>
</defs>
</svg>
