<svg width="20" height="21" viewBox="0 0 20 21" fill="none" xmlns="http://www.w3.org/2000/svg">
<g clip-path="url(#clip0_812_1974)">
<path d="M12.4997 1.3335L14.583 3.41683L16.6663 1.3335M14.583 3.8335V9.66683M0.833008 18.8335H9.58301L17.4997 16.3335V16.0068C17.4994 15.6668 17.4193 15.3316 17.266 15.0281C17.1127 14.7247 16.8904 14.4613 16.617 14.2593C16.3435 14.0573 16.0264 13.9222 15.6913 13.8649C15.3562 13.8076 15.0122 13.8297 14.6872 13.9293L9.58301 15.5002M9.58301 15.5002H5.41634M9.58301 15.5002V13.0002L4.34134 12.1935C3.98471 12.1386 3.62043 12.1614 3.27346 12.2605C2.92649 12.3596 2.60505 12.5325 2.33118 12.7674C2.0573 13.0024 1.83747 13.2937 1.68676 13.6216C1.53604 13.9494 1.45801 14.306 1.45801 14.6668M10.833 3.8335H18.333V9.66683H10.833V3.8335Z" stroke="#F6EBD1"/>
</g>
<defs>
<clipPath id="clip0_812_1974">
<rect width="20" height="20" fill="white" transform="translate(0 0.5)"/>
</clipPath>
</defs>
</svg>
