<svg width="18" height="19" viewBox="0 0 18 19" fill="none" xmlns="http://www.w3.org/2000/svg">
<g clip-path="url(#clip0_293_879)">
<path d="M9 0.5C4.10192 0.5 0 4.01692 0 8.46154C0 10.5592 0.940846 12.4409 2.42308 13.8484C2.24286 14.3194 1.98704 14.7578 1.66569 15.1465C1.23978 15.6631 0.769278 16.1412 0.259615 16.5754C0.147819 16.6651 0.0666163 16.7873 0.0272139 16.9251C-0.0121885 17.0629 -0.00784819 17.2095 0.0396359 17.3447C0.0871199 17.48 0.175407 17.5971 0.292312 17.6801C0.409218 17.763 0.548979 17.8076 0.692308 17.8077C2.22577 17.8077 3.32862 17.7904 4.32692 17.5266C5.22 17.2898 5.98777 16.7942 6.77146 16.0984C7.48454 16.2694 8.22046 16.4231 9 16.4231C13.8981 16.4231 18 12.9062 18 8.46154C18 4.01692 13.8981 0.5 9 0.5ZM9 1.88462C13.2404 1.88462 16.6154 4.87538 16.6154 8.46154C16.6154 12.0477 13.2404 15.0385 9 15.0385C8.24608 15.0385 7.46308 14.9083 6.75 14.7138C6.63597 14.6851 6.51651 14.6859 6.4029 14.7162C6.28928 14.7465 6.18525 14.8052 6.10062 14.8868C5.32177 15.6338 4.74785 15.9821 3.98077 16.1849C3.62769 16.2784 2.94646 16.2562 2.466 16.2936C2.56292 16.1842 2.65362 16.1261 2.74777 16.0118C3.29192 15.3472 3.78831 14.6445 3.93785 13.8484C3.95845 13.7289 3.94729 13.606 3.90549 13.4922C3.8637 13.3784 3.79273 13.2775 3.69969 13.1997C2.24931 12.002 1.38462 10.3232 1.38462 8.46154C1.38462 4.87538 4.75962 1.88462 9 1.88462ZM7.68046 4.58877C7.5586 4.61612 7.44641 4.67592 7.35577 4.76185L6.31731 5.73592L7.24777 6.75223L8.06954 5.97338H9.73523L10.3846 6.71V7.727L8.61023 8.91638C8.51539 8.98097 8.43808 9.06812 8.38527 9.16999C8.33246 9.27187 8.30581 9.38527 8.30769 9.5V10.8846H9.69231V9.88908L11.4667 8.69969C11.5616 8.63504 11.639 8.54778 11.6918 8.44578C11.7446 8.34377 11.7712 8.23023 11.7692 8.11539V6.44969C11.7683 6.28237 11.7068 6.12103 11.5962 5.99554L10.5577 4.82692C10.4931 4.75257 10.4133 4.69287 10.3238 4.6518C10.2342 4.61073 10.137 4.58924 10.0385 4.58877H7.83139C7.78123 4.58327 7.73062 4.58327 7.68046 4.58877ZM8.30769 11.5769V12.9615H9.69231V11.5769H8.30769Z" fill="#F6EBD1"/>
</g>
<defs>
<clipPath id="clip0_293_879">
<rect width="18" height="18" fill="white" transform="translate(0 0.5)"/>
</clipPath>
</defs>
</svg>
