<svg width="18" height="19" viewBox="0 0 18 19" fill="none" xmlns="http://www.w3.org/2000/svg">
<path d="M7.87492 2.75C7.70642 2.758 7.53892 2.76725 7.37242 2.77775C4.23442 2.987 1.73542 5.52575 1.52992 8.71325C1.49003 9.34387 1.49003 9.97638 1.52992 10.607C1.60492 11.768 2.11717 12.842 2.72092 13.7495C3.07117 14.3855 2.84017 15.179 2.47492 15.872C2.21242 16.3708 2.08042 16.6205 2.18617 16.8013C2.29117 16.9813 2.52742 16.9872 2.99917 16.9985C3.93292 17.021 4.56217 16.7563 5.06167 16.3873C5.34442 16.178 5.48617 16.0738 5.58367 16.0618C5.68117 16.0498 5.87392 16.1292 6.25792 16.2867C6.60292 16.4292 7.00417 16.5177 7.37167 16.5417C8.44042 16.613 9.55717 16.6137 10.6282 16.5417C13.7654 16.3332 16.2644 13.7945 16.4699 10.607C16.5098 9.97638 16.5098 9.34387 16.4699 8.71325C16.4539 8.47125 16.4254 8.2335 16.3844 8M13.1249 4.25H13.1317" stroke="#F6EBD1" stroke-linecap="round" stroke-linejoin="round"/>
<path d="M8.99625 9.875C8.99625 9.875 9.00082 9.875 9.00375 9.875M11.9932 9.875H12M6 9.875H6.00675M16.3463 3.9425C16.449 4.07975 16.5 4.14875 16.5 4.25C16.5 4.35125 16.449 4.42025 16.3463 4.5575C15.885 5.1725 14.7075 6.5 13.125 6.5C11.5425 6.5 10.365 5.1725 9.90375 4.5575C9.801 4.4195 9.75 4.3505 9.75 4.25C9.75 4.1495 9.801 4.07975 9.90375 3.9425C10.365 3.3275 11.5425 2 13.125 2C14.7075 2 15.885 3.3275 16.3463 3.9425Z" stroke="#F6EBD1" stroke-linecap="round" stroke-linejoin="round"/>
</svg>
