<svg width="24" height="25" viewBox="0 0 24 25" fill="none" xmlns="http://www.w3.org/2000/svg">
<path d="M21.0002 21.5L16.6572 17.157M16.6572 17.157C17.4001 16.4141 17.9894 15.5322 18.3914 14.5616C18.7935 13.5909 19.0004 12.5506 19.0004 11.5C19.0004 10.4494 18.7935 9.40911 18.3914 8.43848C17.9894 7.46785 17.4001 6.58591 16.6572 5.84302C15.9143 5.10014 15.0324 4.51084 14.0618 4.1088C13.0911 3.70675 12.0508 3.49982 11.0002 3.49982C9.9496 3.49982 8.90929 3.70675 7.93866 4.1088C6.96803 4.51084 6.08609 5.10014 5.34321 5.84302C3.84288 7.34335 3 9.37824 3 11.5C3 13.6218 3.84288 15.6567 5.34321 17.157C6.84354 18.6574 8.87842 19.5002 11.0002 19.5002C13.122 19.5002 15.1569 18.6574 16.6572 17.157Z" stroke="#8B5A2B" stroke-linecap="round" stroke-linejoin="round"/>
</svg>
